<?xml version="1.0"?>
<svg xmlns:rdf="http://www.w3.org/1999/02/22-rdf-syntax-ns#" xmlns="http://www.w3.org/2000/svg" xmlns:cc="http://web.resource.org/cc/" xmlns:xlink="http://www.w3.org/1999/xlink" xmlns:dc="http://purl.org/dc/elements/1.1/" xmlns:svg="http://www.w3.org/2000/svg" id="Layer_1" fill="#d4af37" style="enable-background:new 0 0 409.169 241.211" xml:space="preserve" viewBox="0 0 409.169 241.211" version="1.1" y="0px" x="0px">
<path clip-rule="evenodd" d="m399.4 168.42c1.588 0.396 1.591 2.375 3.203 2.746-0.602 0.922-1.501 1.547-2.745 1.83 0.26-2.27-1.35-2.94-0.46-4.58z" fill-rule="evenodd"/>
<path clip-rule="evenodd" d="m396.65 151.94c-0.062 1.464-1.037 2.013-2.746 1.83-0.42-1.95 1.1-1.95 2.75-1.83z" fill-rule="evenodd"/>
<path clip-rule="evenodd" d="m395.28 174.36c0.357 2.002-2.502 2.302-3.202 1.83 0.24-1.75 1.78-2.48 3.2-1.83z" fill-rule="evenodd"/>
<path clip-rule="evenodd" d="m388.41 146.91c-2.134 0.213-2.025 0.013-3.662 0.915 0.104-1.96-1.522-1.865-0.456-3.66 0.665 0.707 2.342 0.402 3.659 0.457 0.39 0.53 0.61 1.22 0.46 2.29z" fill-rule="evenodd"/>
<path clip-rule="evenodd" d="m388.41 156.97c-0.233 2.055-1.946 2.63-3.662 3.203-0.012-0.444-0.559-0.354-0.915-0.457-0.102-0.857-1.18-3.034 0-3.661 1.377-0.461 0.812 1.02 0.915 1.83 1.49-0.02 1.74-1.29 3.65-0.91z" fill-rule="evenodd"/>
<path clip-rule="evenodd" d="m388.41 168.87c-1.36 1.386-2.627 2.865-5.034 3.204-0.54-1.999-1.341-3.275-0.458-5.035 1.794-0.421 0.332 2.414 1.374 2.746 1.48-0.17 2.73-2.08 4.12-0.92z" fill-rule="evenodd"/>
<path clip-rule="evenodd" d="m385.21 135.92c0.378 1.292-0.646 1.186-0.459 2.287-1.832 0.001-3.42-0.239-3.202-2.287 1.45 0.7 2.01 0.16 3.66 0z" fill-rule="evenodd"/>
<path clip-rule="evenodd" d="m378.8 175.28c-3.234 0.555-5.863-3.567-3.66-5.492 1.415-0.042 1.363 1.382 1.371 2.745 0.16 1.51 2.82 0.53 2.29 2.74z" fill-rule="evenodd"/>
<path clip-rule="evenodd" d="m378.34 161.55v1.374c-1.821-0.296-1.839 1.21-3.661 0.915-0.264-0.957-1.134-1.307-0.915-2.746 1.75 0.96 3.02-0.33 4.58 0.46z" fill-rule="evenodd"/>
<path clip-rule="evenodd" d="m375.14 143.7c-2.178 0.499-1.868-1.489-1.832-3.203h1.832c0.2 0.97 0.57 2.04 0 3.2z" fill-rule="evenodd"/>
<path clip-rule="evenodd" d="m358.67 106.18c-0.099-1.673-0.629-1.755 0-3.203h1.373c0.69 0.82 0.26 3.3-1.37 3.2z" fill-rule="evenodd"/>
<path clip-rule="evenodd" d="m357.75 102.06c-0.062 1.463 0.451 3.501-1.373 3.203 0.196-2.794-0.764-2.048-2.289-1.373v-2.288c1.79 0.42 1.7 1 3.66 0.46z" fill-rule="evenodd"/>
<path clip-rule="evenodd" d="m356.84 192.21c-0.057 1.165-0.667 1.775-1.831 1.83-0.757-1.774 0.852-2.438-2.287-1.83 0.191-0.875 0.165-1.971 1.371-1.83 1.39 0.14 1.29 1.77 2.75 1.83z" fill-rule="evenodd"/>
<path clip-rule="evenodd" d="m356.38 201.82c0.676 1.155-1.264 0.634-1.373 0.916-0.146 0.371 1.307 1.477 1.373 1.372-1.741 2.737-4.435 0.445-2.289-2.746 1.06-0.14 1.76 0.08 2.29 0.46z" fill-rule="evenodd"/>
<path clip-rule="evenodd" d="m352.72 188.09c0.329 1.397-0.469 1.668-0.459 2.745-2.13 0.01-2.43-3.42 0.46-2.75z" fill-rule="evenodd"/>
<path clip-rule="evenodd" d="m348.6 211.43c0.236-2.354 0.579-1.207-0.915-1.83-0.061-1.128-0.069-2.206 0.459-2.746 1.405 0.424 1.708 1.951 2.745 2.746-0.15 1.22-1.2 1.54-2.28 1.83z" fill-rule="evenodd"/>
<path clip-rule="evenodd" d="m347.68 207.31h-1.372c-0.183-1.708 0.366-2.686 1.831-2.746 0.33 1.4-0.47 1.67-0.46 2.75z" fill-rule="evenodd"/>
<path clip-rule="evenodd" d="m344.94 191.3c0.13 1.197-0.167 1.968-1.372 1.83-0.13-1.2 0.16-1.97 1.37-1.83z" fill-rule="evenodd"/>
<path clip-rule="evenodd" d="m342.19 83.295c0.129 0.739-0.432 0.788-0.458 1.373-3.802-1.387-9.188-3.62-8.236-8.237 2.7 2.493 4.78 5.599 8.7 6.864z" fill-rule="evenodd"/>
<path clip-rule="evenodd" d="m340.82 64.075v1.373c-2.972 0.079-3.876 2.227-6.865 2.289-0.07-3.571 3.48-3.53 6.86-3.662z" fill-rule="evenodd"/>
<path clip-rule="evenodd" d="m338.99 186.26c-0.033 1.342-0.166 2.58-1.831 2.288-0.72-0.77 0.04-2.64 1.83-2.29z" fill-rule="evenodd"/>
<path clip-rule="evenodd" d="m338.53 183.97c-0.105 1.573-1.361 1.993-2.746 2.288-0.48-2.13 1.37-3.43 2.75-2.29z" fill-rule="evenodd"/>
<path clip-rule="evenodd" d="m338.07 180.77c0.08 2.216-1.729 2.544-3.205 3.203-0.96-1.54 1.07-3.32 3.21-3.2z" fill-rule="evenodd"/>
<path clip-rule="evenodd" d="m333.5 75.974c-1.267-0.717-3.277-0.69-4.576-1.373 0.052-2.546 2.449-0.669 4.117-0.915-0.013-1.985-2.511-3.875-0.914-5.949 1.87 2.002 4.65 6.237 1.37 8.237z" fill-rule="evenodd"/>
<path clip-rule="evenodd" d="m335.33 228.82c0.181 1.857-0.167 3.188-1.83 3.202 0.158-1.548-3.31-0.146-3.205-2.746 2.13 0.48 3.22 0.32 5.03-0.45z" fill-rule="evenodd"/>
<path clip-rule="evenodd" d="m332.58 198.16c-0.442 1.083-0.802 2.248-2.745 1.83-0.03-1.56 1.38-3.06 2.74-1.83z" fill-rule="evenodd"/>
<path clip-rule="evenodd" d="m331.21 71.397c-1.588-0.368-1.759 0.681-3.204 0.458v-2.288c1.54-0.783 3.46-0.428 3.2 1.83z" fill-rule="evenodd"/>
<path clip-rule="evenodd" d="m328.92 75.516c-0.66 2.947 0.354 5.754-0.916 7.322-2.22-1.013-1.78-7.156 0.92-7.322z" fill-rule="evenodd"/>
<path clip-rule="evenodd" d="m328 72.312c0.075 0.532-0.101 0.814-0.457 0.916-2.666-1.065-5.343 0.722-7.781-0.458 0.62-2.95 6.87-2.043 8.24-0.458z" fill-rule="evenodd"/>
<path clip-rule="evenodd" d="m318.85 197.24c2.202 1.258 2.379-0.141 5.035 0 0.271 3.905-3.705 3.262-5.491 1.831-0.05-0.81 0.56-0.96 0.46-1.83z" fill-rule="evenodd"/>
<path clip-rule="evenodd" d="m319.77 232.02c-1.044-1.398-2.161-0.364-3.202-0.916-0.51-0.269-0.179-2.635-1.831-1.371 0.268-2.253 3.859-1.156 3.662 0.456 1.739 0.674 0.089-2.045 1.83-1.371 1.03 1.02-0.03 2.3-0.46 3.2z" fill-rule="evenodd"/>
<path clip-rule="evenodd" d="m319.31 127.23c-1.435 0.212-2.044-0.398-1.83-1.832 1.26-1.43 3.25 0.57 1.83 1.83z" fill-rule="evenodd"/>
<path clip-rule="evenodd" d="m316.56 79.634c-0.11-1.179-0.788 0.629-1.831 0 0.041-2.247 1.342-3.234 3.662-3.203-0.222 1.556-2.605 2.556 0 3.203-0.804 1.088-2.29 3.213-3.662 2.288 0.03-1.341 1.05-1.699 1.83-2.288z" fill-rule="evenodd"/>
<path clip-rule="evenodd" d="m316.11 123.57c0.266 1.485-0.312 2.128-0.457 3.203-1.6-0.07-2.23-3.85 0.46-3.2z" fill-rule="evenodd"/>
<path clip-rule="evenodd" d="m314.73 203.19c-0.053 1.169-0.086 2.355-1.373 2.289 0.01-1.21-0.43-2.86 1.37-2.29z" fill-rule="evenodd"/>
<path clip-rule="evenodd" d="m313.36 122.19c0.363 1.583-0.509 1.932-0.915 2.745-1.526-0.682-1.357-2.054-0.458-3.202 0.38 0.24 0.75 0.47 1.38 0.45z" fill-rule="evenodd"/>
<path clip-rule="evenodd" d="m311.07 205.94c-0.704-0.697-0.815-3.139 0.915-2.747 0.71 0.7 0.82 3.14-0.91 2.75z" fill-rule="evenodd"/>
<path clip-rule="evenodd" d="m311.07 196.79c-1.804-1.073-1.399 0.861-3.203 0.915v-4.117c2.205 0.84 0.895 1.453 2.746 0 0.63 0.59 0.45 1.99 0.45 3.21z" fill-rule="evenodd"/>
<path clip-rule="evenodd" d="m308.78 231.57c-0.22-1.439 0.652-1.79 0.915-2.745 1.64 0.28 0.61 2.93-0.92 2.75z" fill-rule="evenodd"/>
<path clip-rule="evenodd" d="m305.12 116.24c0.205-0.864-0.621-2.758 0.916-2.288 0.72 0.69 0.67 2.61-0.92 2.29z" fill-rule="evenodd"/>
<path clip-rule="evenodd" d="m306.04 197.7c-2.076 0.417-1.662-3.443-0.457-3.661 1.61 0.25 0.74 2.66 0.46 3.66z" fill-rule="evenodd"/>
<path clip-rule="evenodd" d="m303.29 198.16c-1.568 0.464-1.089-3.439-0.457-3.661 1.85-0.09 1.67 3.19 0.46 3.66z" fill-rule="evenodd"/>
<path clip-rule="evenodd" d="m301.46 198.16h-1.831c-0.223-1.445 0.826-1.617 0.459-3.204 1.82-0.3 1.31 1.74 1.37 3.2z" fill-rule="evenodd"/>
<path clip-rule="evenodd" d="m297.34 198.62c-0.691-0.824-0.262-3.304 1.372-3.202 0.99 1.12 0.35 3.38-1.37 3.2z" fill-rule="evenodd"/>
<path clip-rule="evenodd" d="m295.51 199.08c-1.584-0.828-1.483-2.951 0-3.661 1.67 0.31 0.83 3.14 0 3.66z" fill-rule="evenodd"/>
<path clip-rule="evenodd" d="m293.23 208.23c-1.081-0.416-1.061-2.619 0.457-2.746 0.97 0.94-0.14 1.81-0.46 2.75z" fill-rule="evenodd"/>
<path clip-rule="evenodd" d="m293.68 195.87c0.146 1.518 0.069 2.814-0.916 3.204-0.58-1.1-1.68-3.76 0.92-3.2z" fill-rule="evenodd"/>
<path clip-rule="evenodd" d="m290.02 199.08c-1.551-0.195-0.525-2.446 0-3.204 1.82-0.22 0.88 3.21 0 3.2z" fill-rule="evenodd"/>
<path clip-rule="evenodd" d="m290.48 207.77c-1.407 0.7-1.407-2.988 0-2.288 0.26 0.28 1.07 2.17 0 2.29z" fill-rule="evenodd"/>
<path clip-rule="evenodd" d="m289.11 48.516c1.039 0.487 0.174 2.877 0.458 4.119-1.45-0.087-1.07-3.381-0.46-4.119z" fill-rule="evenodd"/>
<path clip-rule="evenodd" d="m288.65 76.888c-1.598-0.752-2.328-0.674-4.577-1.372-0.058-0.821 0.561-0.966 0.458-1.831 2.482 0.226 2.876 1.047 4.576 0 1.26 1.26-0.41 1.912-0.46 3.203z" fill-rule="evenodd"/>
<path clip-rule="evenodd" d="m287.73 207.77c-1.361-0.041-1.226-2.729 0.456-2.288 0.99 0.95-0.05 1.48-0.46 2.29z" fill-rule="evenodd"/>
<path clip-rule="evenodd" d="m286.36 199.53c0.886-0.792-0.393-3.748 1.374-3.66 0.74 0.96 1.03 4.42-1.37 3.66z" fill-rule="evenodd"/>
<path clip-rule="evenodd" d="m284.99 207.77v-1.83c1.76-0.36 1.76 2.19 0 1.83z" fill-rule="evenodd"/>
<path clip-rule="evenodd" d="m284.99 199.08c-1.33-0.009-1.081-2.587-0.457-3.204 1.33 0 1.08 2.58 0.46 3.2z" fill-rule="evenodd"/>
<path clip-rule="evenodd" d="m282.24 207.77v-1.83c1.76-0.36 1.76 2.19 0 1.83z" fill-rule="evenodd"/>
<path clip-rule="evenodd" d="m282.24 199.08c-2.019 0.393-1.639-2.983-0.458-3.204 1.34 0 1.09 2.58 0.46 3.2z" fill-rule="evenodd"/>
<path clip-rule="evenodd" d="m278.12 198.16c0.204-0.866-0.622-2.759 0.916-2.289 0.7 0.66 0.44 2.39-0.92 2.29z" fill-rule="evenodd"/>
<path clip-rule="evenodd" d="m275.38 76.431c-0.07-1.138 0.72-1.417 0.915-2.288 1.55 0.197 1.06 2.984-0.92 2.288z" fill-rule="evenodd"/>
<path clip-rule="evenodd" d="m277.21 195.87c0.146 1.062-0.073 1.758-0.457 2.289-1.19 0.13-1.59-3.09 0.46-2.29z" fill-rule="evenodd"/>
<path clip-rule="evenodd" d="m274.92 73.686c0.061 1.128 0.069 2.204-0.458 2.746-1.514-1.107-2.698 0.286-2.746-2.288 2.08 1.226 1.23 0.157 3.21-0.458z" fill-rule="evenodd"/>
<path clip-rule="evenodd" d="m263.02 74.143h-1.831c0.61-0.762-0.166-2.912 1.374-2.746 0.53 0.541 0.52 1.618 0.46 2.746z" fill-rule="evenodd"/>
<path clip-rule="evenodd" d="m260.73 72.312v1.373c-0.589 0.629-2.737 0.796-2.746-0.458-0.12-1.466 2.01-1.663 2.75-0.915z" fill-rule="evenodd"/>
<path clip-rule="evenodd" d="m233.28 196.33c1.087 1.42-0.812 2.913-1.372 4.118-1.58-0.89-0.22-3.72 1.37-4.12z" fill-rule="evenodd"/>
<path clip-rule="evenodd" d="m228.24 199.08c0.962-1.02 1.181-2.785 3.202-2.746 0.16 2.05-1.91 3.58-3.2 2.75z" fill-rule="evenodd"/>
<path clip-rule="evenodd" d="m196.67 184.89c0.226 2.361-0.63 3.643-2.746 3.661-0.16-2.29 1.14-3.13 2.75-3.66z" fill-rule="evenodd"/>
<path clip-rule="evenodd" d="m193.92 184.89c-0.202 1.323-0.965 2.087-2.289 2.288-0.95-0.92 0.97-3.64 2.29-2.29z" fill-rule="evenodd"/>
<path clip-rule="evenodd" d="m187.06 180.77c2.265 1.125-0.819 5.737-2.746 4.118 0.69-1.6 1.99-2.59 2.75-4.12z" fill-rule="evenodd"/>
<path clip-rule="evenodd" d="m182.48 184.43c-0.252-1.65 1.673-3.479 2.746-2.287-0.29 1.4-1.02 2.34-2.75 2.29z" fill-rule="evenodd"/>
<path clip-rule="evenodd" d="m176.53 179.86c-1.565-0.229-1.151-3.856 0.916-3.203 1.13 1.18 0.09 2.78-0.92 3.2z" fill-rule="evenodd"/>
<path clip-rule="evenodd" d="m175.16 175.74v2.288c-1.34-0.12-1.406 1.034-2.746 0.915 0.35-1.64 1.06-2.91 2.75-3.2z" fill-rule="evenodd"/>
<path clip-rule="evenodd" d="m172.41 173.91v2.288c-1.62-0.247-1.125 1.62-2.747 1.373-0.91-1.49 0.65-3.74 2.75-3.66z" fill-rule="evenodd"/>
<path clip-rule="evenodd" d="m169.66 171.62c0.047 2.031 0.24 4.207-2.288 3.662-0.04-2.03 0.55-3.43 2.29-3.66z" fill-rule="evenodd"/>
<path clip-rule="evenodd" d="m166.92 170.24c0.181 2.163-0.667 3.298-2.746 3.204 0.14-1.84 0.68-3.28 2.75-3.2z" fill-rule="evenodd"/>
<path clip-rule="evenodd" d="m165.09 168.42c-0.081 2.207-1.566 3.009-3.66 3.202 0.1-2.05 1.76-4.42 3.66-3.2z" fill-rule="evenodd"/>
<path clip-rule="evenodd" d="m162.34 166.58c0.14 2.121-0.802 3.163-2.747 3.202-0.72-1.17 0.75-3.31 2.75-3.2z" fill-rule="evenodd"/>
<path clip-rule="evenodd" d="m157.31 167.96c0.3-2.293 1.414-3.772 3.205-4.576 0.7 1.66-0.94 4.42-3.21 4.58z" fill-rule="evenodd"/>
<path clip-rule="evenodd" d="m138.09 156.06c-0.392-1.46 0.721-1.415 0.916-2.288 1.69 0.34 0.55 2.47-0.92 2.29z" fill-rule="evenodd"/>
<path clip-rule="evenodd" d="m135.8 154.23c-0.089-1.312-0.057-2.499 1.373-2.289 0.95 0.94 0 2.32-1.37 2.29z" fill-rule="evenodd"/>
<path clip-rule="evenodd" d="m135.8 149.65c0.248 1.619-0.739 2.006-1.372 2.744-1.22-0.81 0-3.01 1.37-2.74z" fill-rule="evenodd"/>
<path clip-rule="evenodd" d="m132.14 149.19c0.258-1.114 0.391-2.354 1.83-2.288 1.19 1.08-0.93 3.3-1.83 2.29z" fill-rule="evenodd"/>
<path clip-rule="evenodd" d="m130.31 145.99c0.198-1.021 0.809-1.633 1.831-1.83 1.35 1.19-1.04 2.79-1.83 1.83z" fill-rule="evenodd"/>
<path clip-rule="evenodd" d="m121.16 138.67c0.209 1.43-0.978 1.464-2.289 1.372v-1.83c1.06-0.14 1.76 0.07 2.29 0.46z" fill-rule="evenodd"/>
<path clip-rule="evenodd" d="m119.78 137.3c-1.062 0.146-1.757-0.073-2.289-0.457 0.398-0.671 0.685-1.451 1.831-1.374 0.36 0.4 0.5 1.03 0.46 1.83z" fill-rule="evenodd"/>
<path clip-rule="evenodd" d="m119.33 133.18c0.266 1.639-1.354 1.392-2.747 1.373-0.62-2.05 1.84-2.22 2.75-1.37z" fill-rule="evenodd"/>
<path clip-rule="evenodd" d="m116.12 131.35v-1.831c1.76-0.36 1.76 2.19 0 1.83z" fill-rule="evenodd"/>
<path clip-rule="evenodd" d="m108.34 126.31c0.066 1.439-1.174 1.574-2.288 1.83-0.54-1.97 1.33-2.74 2.29-1.83z" fill-rule="evenodd"/>
<path clip-rule="evenodd" d="m106.97 122.65c0.105 1.63-0.658 2.393-2.288 2.287-0.32-1.85 0.44-2.61 2.29-2.29z" fill-rule="evenodd"/>
<path clip-rule="evenodd" d="m105.6 119.91c0.342 1.408-1.255 0.88-0.915 2.288-1.17-0.051-0.908-1.532-0.915-2.746 0.96-0.2 1.22 0.31 1.84 0.46z" fill-rule="evenodd"/>
<path clip-rule="evenodd" d="m104.68 115.79v1.831c-0.821-0.058-0.966 0.56-1.83 0.458 0.26-1.12 0.39-2.36 1.83-2.29z" fill-rule="evenodd"/>
<path clip-rule="evenodd" d="m38.327 16.025c-0.396 1.129 0.117 3.167-1.373 3.203 0.063-1.463-0.451-3.502 1.373-3.203z" fill-rule="evenodd"/>
<path clip-rule="evenodd" d="m33.751 19.228c0.331-1.041 0.407-2.337 0.915-3.203 1.513 0.178 1.371 4.074-0.915 3.203z" fill-rule="evenodd"/>
<path clip-rule="evenodd" d="m32.378 15.567c1.032 0.341 0.179 2.566 0.458 3.661-1.974-0.034-1.494-3.019-0.458-3.661z" fill-rule="evenodd"/>
<path clip-rule="evenodd" d="m29.175 18.77c0.155-1.419-1.06-2.186 0-3.203 1.539 0.137 1.984 3.158 0 3.203z" fill-rule="evenodd"/>
<path clip-rule="evenodd" d="m27.343 18.77c-1.517-0.207-2.59-3.078-0.457-3.203 0.631 0.589 0.453 1.988 0.457 3.203z" fill-rule="evenodd"/>
<path clip-rule="evenodd" d="m23.683 19.228c-0.731-0.642-1.169-1.576-1.373-2.746 1.539-0.11 2.365 1.7 1.373 2.746z" fill-rule="evenodd"/>
<path clip-rule="evenodd" d="m20.48 19.685c-1.064-0.461-1.477-1.575-1.373-3.203 2.037-0.503 2.181 2.26 1.373 3.203z" fill-rule="evenodd"/>
<path clip-rule="evenodd" d="m18.192 20.143c-0.804-0.419-1.591-0.851-1.374-2.288 0.368-0.243 0.744-0.478 1.374-0.458 0.625 0.585 0.625 2.161 0 2.746z" fill-rule="evenodd"/>
<path clip-rule="evenodd" d="m15.446 20.601c-1.43 0.21-1.463-0.978-1.374-2.288h1.374c0.587 0.601 0.587 1.687 0 2.288z" fill-rule="evenodd"/>
<path clip-rule="evenodd" d="m12.699 18.312c-0.263 0.804 0.553 2.688-0.457 2.746-1.803 0.231-0.835-3.183 0.457-2.746z" fill-rule="evenodd"/>
<path clip-rule="evenodd" d="m9.497 21.516c-1.362-0.04-1.224-2.729 0.458-2.288 0.992 0.952-0.057 1.479-0.458 2.288z" fill-rule="evenodd"/>
<path clip-rule="evenodd" d="m308.78 121.28c0.882-0.186 0.361-1.774 1.831-1.373 0.906 0.9 0.291 2.614 0 3.661-1.895-0.241-1.373-2.898-3.661-2.746 0.966-1.721-0.232-1.619-0.916-2.746-0.215-1.437 1.232-1.209 1.373-2.289 1.274 0.252-0.643 3.694 1.831 2.746 0.34 1.4-0.78 1.35-0.45 2.75z" fill-rule="evenodd"/>
<path clip-rule="evenodd" d="m408.55 181.68c-2.095 0.854-4.773-0.312-6.865 0-1.709 0.255-3.036 1.46-4.576 1.831-6.903 1.663-12.984-0.552-19.678-1.831 0.671 4.058 0.537 8.92 4.119 10.067-0.001 2.288-1.231 3.347-3.661 3.204 0.005 2.058 1.385 2.92 1.372 5.034-0.016 2.817-2.216 4.822-1.83 7.322 0.448 2.903 3.519 3.461 4.119 5.492 0.078 2.669-2.85 2.337-5.492 2.287-0.312 4.432 1.109 7.127 2.746 9.609 2.132 0.462 4.481 0.704 5.033 2.746-2.436 1.776-8.004 3.156-10.525 0.915-1.959 4.334 3.091 5.388 3.203 9.153-9.426 2.423-13.861-6.098-13.271-13.729-2.971-0.225-3.018 2.475-4.576 3.661-3.824-2.38-2.647-7.025-3.203-12.355h-5.491c-0.635 2.959-0.136 7.112 1.83 9.609-0.601 3.652-3.258 7.349-6.865 8.237-0.966 0.238-2.522-0.664-4.118-0.457-2.52 0.327-4.924 3.072-6.865 3.203-1.667 0.112-3.201-0.56-4.576-0.915-1.771 7.284-17.274 10.315-16.474-1.373-1.908-0.078-2.258 1.403-4.119 1.373-2.116 0.039-3.184-2.225-5.033-3.203-2.371-1.253-4.966-0.662-5.491-3.661-0.892-5.066 4.548-6.446 10.982-6.407-0.384-0.53-0.604-1.227-0.458-2.288-4.47-1.021-8.34-2.643-13.271-3.203-1.043-1.091-1.474-2.797-1.83-4.576-2.049 0.696-4.043 0.203-6.407 0-4.545-0.393-9.423 0.685-14.186 0.459-0.865-0.043-1.832-0.811-2.746-0.918-4.865-0.56-10.202 0.145-15.101-0.456-3.492-0.429-7.446-1.255-10.984-1.831-4.004-0.652-7.935-2.687-10.983-2.745-3.232-0.063-6.942 2.228-10.067 1.373 0.319-2.455-2.105-2.167-2.288-4.12-13.47-2.699-26-6.338-35.237-13.271-3.743 2.633-7.718 1.38-11.898 0-0.833-1.605-1.853-3.029-2.288-5.034-1.883-1.015-3.506-2.29-5.95-2.744-1.967-2.589-5.378-4.199-8.694-5.95-1.585-0.838-3.089-1.826-4.576-2.745-1.497-0.926-3.264-2.253-4.577-2.747-4.48-1.685-9.895-0.798-12.355-5.491 0.141-1.667-0.073-2.978-0.458-4.118-1.35-2.005-2.685-4.026-5.491-4.576-0.355-0.407-0.492-1.034-0.458-1.831-1.85 0.269-2.882-1.798-4.118-2.745-8.456-6.48-16.032-15.437-23.796-23.339-4.075-6.653-9.754-12.444-13.729-19.679-1.248-2.272-1.435-5.452-4.118-6.864-1.493-5.22-3.513-9.911-6.406-13.729-1.075-0.146-1.718-0.723-3.205-0.458-2.78-2.134-4.514-7.548-0.915-10.068-5.474-19.696-11.231-39.108-26.542-48.966-1.92-0.062-2.557 0.832-4.118 0-1.655 0.128-1.047-2.004-1.831-2.746-7.717-3.378-17.245-1.478-25.627-0.458-3.33 0.405-7.415 0.962-10.068 0-7.198-2.608-4.435-13.886-0.458-17.847 0.322-0.32 1.38-0.664 2.288-1.373 4.661-3.644 13.759-6.579 21.966-6.407 5.954 0.125 11.271 2.036 16.933 1.831 1.68-0.456 2.585-1.686 4.576-1.831 1.373 1.067 3.297 1.583 3.66 3.661 21.26 8.792 36.568 23.534 47.594 42.559 2.393 1.101 3.969 1.411 5.034 3.204 0.802 1.351 0.26 3.051 0.915 4.576 0.938 2.183 3.325 4.294 5.034 6.865 1.631 2.451 2.541 5.361 4.119 7.322 1.324 1.644 3.56 2.992 5.034 4.576 1.667 1.792 2.673 3.99 4.119 5.492 2.055 2.133 5.259 4.412 7.78 6.406 7.281 5.765 16.745 11.82 26.084 15.56 1.727-1.019 3.739-1.752 6.865-1.373 4.008 5.601 12.18 7.039 20.135 8.695 1.447-1.298 1.486-4.006 3.204-5.034 3.896-0.674 7.511 2.433 9.609 5.034 10.158-0.26 18.215-0.321 27.916-2.746 0.238-5.434 7.663-6.08 10.524-2.746 11.346-1.622 19.633-6.301 29.747-9.153 2.314-2.414 6.021-3.435 8.694-5.491-2.136-2.44-4.722-4.43-5.948-7.78-3.544 0.34-6.066-0.34-7.322-2.288-7.818 2.733-13.688-6.352-7.78-11.898 0.519-0.486 1.736-1.082 2.289-1.83 0.864-1.174 0.633-2.876 1.372-3.661 1.381-1.468 3.798-2.302 4.576-2.288-0.395-5.607 6.632-7.024 10.983-5.034 1.227 1.063 0.373 4.203 2.287 4.577 3.618 0.414 2.979-3.43 5.035-4.577 7.709 0.57 12.87 0.863 17.848 4.119 1.563-0.419 2.896-1.07 4.117-1.831 0.178-7.805-4.847-12.845-4.117-19.678 2.525-0.588 4.105 3.444 6.406 4.577 0.883-2.016 1.132-4.665 2.746-5.95 3.176 0.112 0.667 3.113 1.372 4.119 0.712 3.254 2.771 5.161 4.576 7.322 0.745-5.51 0.401-12.107 5.95-12.813 1.514 1.122 0.302 2.414 0 4.119 1.152 8.305 10.276 8.638 10.983 17.39 6.123 1.352 12.346 2.604 15.559 6.865 1.183-1.563 1.182-4.31 3.661-4.577-0.388-2.743-0.03-3.388 0-6.407 1.007-1.238 1.521-0.125 2.745-0.915 1.645-3.848 2.105-8.879 7.779-8.695-2.008 3.805-3.21 9.298 0 12.813 1.647 0.123 2.206-0.845 3.661-0.915 5.431 0.892 10.736 1.171 14.188 1.831-1.25 5.768-5.17 8.863-10.068 10.983 2.097 2.327 6.094 2.755 6.864 6.407-2.79 1.022-6.785 0.841-8.694 2.746-0.515 2.498 3.135 0.831 2.746 3.203-0.828 0.851-2.312 1.045-3.661 1.374 0.038 1.18 1.959 0.481 1.373 2.288-1.896 1.307-4.745 1.663-4.577 5.034 1.808 0.787 3.536 1.651 5.034 2.746 1.406-9.234 15.85-14.3 20.594-5.034 8.124-0.193 9.802 6.062 11.897 11.898 1.421 0.602 1.307-0.123 3.204 0-0.055 1.318 0.25 2.996-0.458 3.661-8.239 0.612-6.136-9.119-11.898-10.983-1.333 1.984-0.726 6.518-3.66 7.322-5.615 1.537-8.761-7.945-3.662-10.983-1.105-1.046-3.812-2.36-5.491-1.373-1.215 0.875 3.047 1.783 1.374 3.203h-5.035c-1.444 2.064-3.372 3.646-3.661 6.865 3.388 3.324 7.077 6.346 8.696 11.441-3.132 1.641-8.924-0.303-12.814 1.373 2.982 1.136 6.463 1.774 8.694 3.661 3.79-4.205 12.381-1.587 12.355 4.576 2.941-0.5 3.947 0.935 5.95 1.373 2.901 5.423 2.469 15.071-6.864 13.271 0.641 3.317 2.663 5.053 2.746 7.78 2.068-0.678 3.847-1.646 4.118-4.118 5.467 2.256 8.552 10.607 10.525 17.389 0.379 1.298-0.49 3.538 1.373 4.12-0.81 4.072 0.109 10.216 2.287 12.812-1.96 5.95 2.73 9.82 0.49 14.67zm-3.21-7.32c-2.573 0.323-5.103 0.693-5.949 2.745 0.237 0.677 0.677 1.153 0.915 1.831 2.688 0.016 5.433 0.047 6.408-0.458-0.01-1.8-1-2.64-1.37-4.11zm-6.4 0c2.557-0.428 4.531-2.001 6.406-1.832-0.201-3.507-0.298-5.516-1.373-7.321-5.12-0.45-6.33 4.63-5.04 9.15zm4.12-19.22c-4.796 0.04-3.277 6.326-3.203 9.152 4.85 0.43 3.65-5.51 3.2-9.15zm-3.21-9.15c0.106 2.639 1.397 4.094 0.915 7.321 2.27-0.85 0.79-6.29-0.91-7.32zm-1.37 8.24c-0.024-0.789 0.352-1.175 0.915-1.374-0.137-2.762-0.109-5.687-1.373-7.322-2.571 0.785-4.161 2.551-6.407 3.661 0.042 3.572 0.817 5.928-0.457 8.694 2.12 0.18 4.41-3.13 7.32-3.66zm-2.75-17.39c-2.624-0.338-3.734 0.84-5.491 1.372 0.476 2.882 1.323 5.389 1.372 8.695 3.023-0.485 4.105-2.912 7.323-3.203 0.12-3.46-2.24-4.47-3.2-6.86zm1.83 40.27c-1.093 1.195-1.92 2.655-3.204 3.661 1.769 0.089 3.372 0.017 4.577-0.459 0.27-1.8-0.68-2.37-1.38-3.2zm-2.28-10.99c0.119-0.95 2.011-0.124 2.289-0.915-0.019-3.526 1.018-5.999 0.915-9.61-7.824 5.143-15.079 10.854-26.085 12.814 1.839 4.721 0.895 12.224 7.779 11.896-0.753-2.449-5.086-1.318-5.032-4.574 2.233 0.206 2.521 2.358 5.491 1.83-0.316-4.305-1.529-6.273 0-9.611 1.386 1.209 0.788 4.399 0.915 6.865 3.099-0.867 4.765-3.166 7.322-4.576 0.445-2.148-1.279-6.465 1.83-5.949 0.422 1.368-0.154 3.832 0.457 4.576 0.751-1.08 2.357-1.303 3.203-2.287-1.618 0.244-2.356-0.39-2.746-1.374-0.019-1.392-0.266-3.012 1.374-2.746-0.067 1.136-0.086 2.222 0.915 2.289 0.253-1.086 1.77-1.899 2.746-0.915 0.26 1.22-2.54 1.67-1.37 2.28zm1.37 0.92c-1.668 1.689-4.308 2.405-5.949 4.12 0.199 3.46 0.224 7.098 2.288 8.694 1.279-1.62 2.37-3.426 4.576-4.118-0.64-2.56-0.02-6.38-0.92-8.69zm-4.12-80.083c1.918 0.677 2.59 2.597 4.12 3.661-0.11-2.188-3.01-3.993-4.12-3.661zm-4.12 30.203c-1.448 3.129-2.316 6.837-7.779 5.949 0.899 1.503 3.06 1.227 4.576 1.83 1.638 0.652 2.987 1.795 4.576 2.29 4.19-0.49 5.05-11.37-1.38-10.07zm0.46 55.83c-3.347-0.065-4.051 4.169-6.865 3.203 0.035 3.458 6.998 5.799 8.695 3.203-0.82-1.92-1.74-3.75-1.83-6.4zm0.91-22.42c-2.321-0.024-5.285 3.253-8.237 4.118 0.844 2.206 0.31 5.791 0.457 8.694 3.185-0.629 4.812-2.815 7.78-3.66 0.48-2.38 0.93-6.86 0-9.15zm-5.94-62.24c-0.062-0.917 3.109-2.127 0.915-2.289-2.686 1.869-2.165 7.755 1.832 7.78 1.594-0.515 4.146-5.393 1.371-5.949 0.647 2.671 0.124 4.783-2.744 5.034-1.49-0.509-1.46-2.519-1.38-4.576zm4.57 51.71c-1.542 0.298-4.729 2.893-6.864 4.12 0.367 2.529 0.309 5.485 0.915 7.779 2.864-0.645 4.188-2.828 6.864-3.661-0.15-2.9 0.56-6.65-0.91-8.24zm-2.29-8.69c-3.144-0.208-3.272 1.656-3.661 3.204-1.769 0.089-3.372 0.016-4.576-0.458 0.611 3.048 2.65 4.672 2.746 8.237 3-0.965 4.86-3.071 7.32-4.576 0.28-3.02-0.97-4.52-1.83-6.4zm0-40.275c1.023-0.197 0.185-2.255 0.458-3.203-1.4-0.446-2.25 3.369-0.46 3.203zm-4.57 30.665c4.639-0.114 6.211-8.398 3.202-10.526-0.402-0.284-3.343-0.953-4.117-0.915-6.241 0.302-0.323 4.842 0.456 6.864-1.336 1.586-4.386-1.36-5.033 0.916 3.6 1.64 2.45 3.73 5.49 3.66zm1.37-40.275c0.772 1.059 1.426 2.235 3.204 2.288 0.09-1.916-2.17-1.484-3.2-2.288zm-2.75 47.135c-0.3 1.673 0.991 1.755 0.915 3.202 1.42-0.716 3-1.271 3.661-2.745-0.62-1.02-3.45-1.35-4.57-0.46zm0 17.39c-2.253-0.748-4.341 2.272-7.779 1.83-0.53 0.487-0.169 2.107 0.458 2.746 0.222-0.54 0.487-1.037 0.915-1.373 1.774 0.991 1.05 3.001 3.204 2.746 0.398 1.466-0.705 1.431-1.374 1.83-1.938-0.045-1.498-2.468-3.203-2.746v4.576c3.436-0.072 5.997-1.02 8.238-2.288-0.66-2.22-0.23-5.93-0.46-7.33zm0 9.61c-2.979 0.304-5.179 3.041-8.236 1.831v8.694c3.138 1.028 6.341-1.085 8.695-2.287-0.73-2.45-0.14-4.69-0.45-8.23zm-36.15-43.47c0.947 0.683 0.634 3.958-0.915 3.661 0.26-0.936-0.14-3.433-0.915-1.831 1.551 3.236-2.659 5.522-2.746 8.696-0.101 3.739 2.93 6.056 5.95 8.236 0.107-2.026 0.329-3.94 2.287-4.118 2.46 4.053 6.044 9.055 11.441 8.694-0.746-0.924-1.206-5.457 1.373-4.576-0.483-2.447-2.49-5.128 0.456-6.406 3.626 2.019 3.241 8.048 7.323 9.61 1.463-1.483 3.121-0.478 5.491-0.457 0.98-1.036-0.596-2.013 0.915-2.747 1.919 0.369 2.968 1.609 5.035 1.832 0.893-1.489-3.183-5.246 0-6.408-0.806-4.992-5.533-6.061-7.323-10.068 0.459-0.607 0.433-1.702 1.373-1.83 0.799 0.7 3.392 2.475 4.119 0.458-3.573-3.138-6.755-6.669-14.188-5.949 0.142-1.055-1.321-0.508-1.372-1.373v-2.746c5.836 0.302 9.125-3.49 14.186-1.373-2.526-4.949-5.98-8.969-14.186-8.237-0.007-0.91-1.248-0.583-0.915-1.831 0.153-2.439 1.882-3.305 4.576-3.203-1.197-2.769-5.703-2.229-9.61-2.288-0.858-0.872-0.05-1.15 0-2.289-2.148 0.877-5.626 1.365-7.78 3.204-0.373 0.319-0.138 1.438-0.456 1.831-0.777 0.954-2.343 1.612-3.205 2.746-2.23 2.938-3.5 6.165-1.83 10.068 1.478-4.161 6.651-9.012 11.441-6.865-4.786 2.232-10.348 3.687-10.526 10.526-1.034 0.076-2.013-2.201-2.745-0.916 1.088 0.589 0.384 2.972 1.83 3.204 3.249-7.423 12.862 0.088 15.56 3.203 2.871 3.316 5.374 8.567 7.778 10.983 1.328 0.81 3.637 0.635 3.205 3.203-10.027-3.72-11.213-18.661-23.797-18.305 1.462 2.198 8.159 3.53 5.034 7.322-0.752-2.306-3.147-5.385-5.491-4.576 1.267 0.191 2.367 3.834 0 3.661-0.18-0.55-0.01-3.82-1.36-2.71zm35.24 31.57c-0.088-2.964-1.3-4.802-1.83-7.323-3.16 0.808-5.762 2.171-7.779 4.12 0.849 1.896 1.134 4.355 2.288 5.948 2.97-0.38 5.43-1.28 7.32-2.75zm-5.49 68.19c1.505 0.085 3.966 2.296 4.576 0.456-1.674-2.015-2.8-2.387-3.202-4.576-0.636-3.444 1.321-5.312 1.371-6.864 0.074-2.27-0.461-4.115-1.83-5.491-2.434 0.855-2.333 0.871-3.661-0.915-0.496 1.171 1.391 2.181 0 2.745-1.265-0.108-0.163-2.582-1.83-2.288-0.447 1.698 1.697 3.144 0.915 3.66-1.748 0.377-0.54-2.205-2.288-1.83-0.639 1.98 1.99 3.03 0 3.661-1.013-0.971-0.685-3.281-2.289-3.661-0.266 1.963 1.941 3.831 0.915 5.034-1.891-0.244-0.543-3.727-2.745-3.66 0.672 6.774-0.998 13.522-5.948 16.016-0.287 3.643 0.795 5.917 0.458 9.61 2.27-0.476 2.931-2.56 4.575-3.661 3.808 1.095 1.694 5.954 2.745 9.152 1.238 3.764 4.405 5.252 8.238 6.407 0.146-1.822-2.115-1.239-2.288-2.746-1.079-2.117-1.585-7.23 0.458-8.693 1.336 1.419 3.909 4.01 6.864 2.287-4.58-2.33-6.39-8.91-5.04-14.64zm-4.58-121.73c2.977-0.838 1.732-5.895 6.406-5.034 0.33-1.806 1.514-2.758 2.289-4.119-4.73 1.222-7.35 4.555-8.7 9.153zm6.41 91.98c-1.676-0.148-0.724 2.027-0.915 2.744-0.428 1.599-1.537 2.968-1.373 4.576-0.557 0.97-1.722 1.33-1.83 2.746 1.309 1.285 3.638 1.549 6.407 1.374-1.27-3.31-2.37-6.79-2.29-11.44zm-10.53-128.13c-1.831 0.305-2.556 1.716-4.576 1.83-2.37-2.207-2.584-6.569-4.119-9.61-0.518 4.306-6.191 6.448-3.204 11.441-0.854 0.365-1.675 0.765-2.745 0.916 0.124 2.259-1.335 2.936-1.372 5.034 1.194 1.552 2.824 2.667 3.202 5.034 1.118 1.16 0.976-0.965 2.746-0.458-0.514 1.164-1.124 2.231-1.831 3.203 1.68 0.131 2.333-3.13 4.118-1.373-0.396 1.152-2.907 2.552-1.829 3.661 0.109-0.706 1.701-2.193 2.288-0.916 0.271 1.819-3.202 2.259-1.83 3.661 0.81-0.294 1.935-2.592 2.745-1.373 0.043 2.026-2.499 1.468-2.288 3.662 0.431 0.948 3.078-2.859 3.661-0.458-1.566 1.483-3.709 2.393-4.118 5.033 1.863-0.577 1.538-3.344 4.118-3.204-0.213 2.077-1.863 2.714-1.83 5.034 0.531 0.384 1.226 0.604 2.288 0.458 0.047-3.309 2.233-4.478 4.117-5.949-0.681-0.388-0.661-1.473-0.915-2.288 0.619-0.144 0.875-0.651 1.83-0.458 0.482-2.006-1.547-1.502-1.372-3.203 0.918-2.896 5.292-2.335 7.78-3.661-0.235-3.579-6.762-0.866-5.034-6.407 3.715-1.929 7.642-3.647 8.694-8.238-4.19 0.219-6.74-1.194-10.53-1.371zm4.58 83.293c2.226 0.228 5.151-1.234 4.575-2.287-0.42 1.95-5.07-1.36-4.57 2.29zm-15.1 59.03c4.196 0.208 8.739-0.331 11.896-2.745 0.474-0.361 0.759-1.673 1.374-2.289 0.957-0.959 2.31-1.248 2.746-1.831 1.283-1.713 0.639-3.492 0.915-5.033 0.104-0.569 1.241-1.444 1.373-1.831 1.226-3.625-1.16-7.739-1.831-10.068-3.066-10.633 2.709-23.829-4.118-31.576-0.514 0.048-0.713-0.664-0.915 0 2.909 5.568 3.859 11.586 3.203 18.306-0.459 4.7-2.772 8.992-3.203 13.271-0.415 4.103 1.032 7.049 0.456 10.526-1.398 0.333-1.345-0.789-2.745-0.458-5.147-4.768-9.349-10.48-13.271-16.475-0.125 0.416-1.704 1.538-1.831 0.459 0.963-2.343-0.457-1.839-0.915-3.661 0.608-0.46 1.704-0.435 1.83-1.374-1.446-0.63-2.762 1.133-3.202 0 0.021-1.505 1.955-1.095 1.831-2.745-0.804-0.127-2.284 1.288-2.746 0-0.178-1.703 2.204-0.848 2.287-2.288-1.33-0.08-3.232 1.607-4.118 0.457-0.254-2.694 3.662-1.219 4.118-3.203-2.46-1.378-5.271 0.82-6.406 2.288 1.561 2.046 2.122 3.277 3.66 4.576-0.077 0.534-0.724 0.497-1.372 0.458 2.802 6.942 0.471 15.31-5.949 16.933-0.466 1.364-0.887 2.773-2.747 2.745-1.095 0.182 0.256-2.084-1.371-1.373-3.447 5.836 3.243 11.918 7.321 14.644 3.285-0.232 4.625 1.477 8.238 0.916-0.008-1.584-2.811-3.454-0.459-4.576 0.58 3.39 3.96 3.97 5.96 5.94zm13.27-104.8v2.288c1.534 0.314 1.674-0.768 1.831-1.831-0.62-0.143-0.87-0.651-1.83-0.457zm-4.58 45.767c2.93-0.489 3.758 1.124 5.491 1.83 0.59-4.01-4.55-5.56-5.49-1.83zm4.58 16.47c-0.745-3.1-2.269-6.712-1.83-9.609-2.15-4.863-6.076-5.901-11.44-6.865 2.515 3.46 5.764 8.439 6.864 14.187 0.74 3.867 1.184 8.071 0 10.525-2.392-0.277 0.072-2.731-1.373-4.119 0.003-3.331-0.748-6.248-1.373-8.236-1.21-3.849-3.098-10.782-7.779-11.441-0.073 5.794-2.213 10.243-1.83 15.102 0.327 4.183 1.853 7.854 3.661 11.441 1.066 2.119 2.206 4.058 3.203 5.491 2.337 3.36 4.935 7.396 8.236 9.152-1.18-9.46 3.2-17.67 3.66-25.63zm-4.58-60.864c0.602 0.466 1.688 0.449 2.287 0.915 0.385-0.531 0.605-1.227 0.459-2.288-1.02 0.356-2.48 0.264-2.75 1.373zm-1.37 40.274c0.013 1.354-2.787 2.231-0.456 3.202-0.062-2.195 2.969-1.301 3.202-3.202h-2.74zm-2.29 77.34c2.438-2.728 2.54-7.835 0.916-11.44-6.654-1.117-11.828-2.046-14.645 3.202-3.14 11.23 9.52 12.93 13.72 8.24zm-40.27-127.22c7.709 0.071 14.444 5.079 17.39 11.44 2.055 0.225 3.429-0.232 5.033-0.458 2.076-4.331 5.332-7.481 9.61-9.61 3.553-5.641 0.587-15.436-3.202-19.678-2.734-3.058-5.313-4.161-8.696-5.491-0.494-0.195-0.878-1.217-1.372-1.373-2.061-0.65-5.702-1.456-7.781-1.373-0.187 0.007-1.061 0.81-1.829 0.915-0.723 0.1-1.585-0.188-2.288 0-2.901 0.774-3.517 2.448-5.034 3.661-0.709 0.566-2.005 0.675-2.745 1.373-1.032 0.971-1.255 1.635-1.831 2.746 2.453 0.154 3.286-3.713 5.948-1.83-2.692 2.189-5.826 3.937-7.321 7.322 0.069 1.456 1.037 2.013 0.915 3.661-1.735 2.212-5.867 8.168-0.457 9.61 1.847-0.174 1.781-4.058 3.661-2.746 0.62 1.044-1.19 1.722-0.01 1.831zm27.92 47.135c-0.704 1.876-1.79 3.19-0.915 5.492 2.041 0.124 4.761-0.018 6.863-0.459-2.59-1.07-4.26-3.06-5.95-5.03zm-8.7 0.46c-0.683 0.537-0.54 1.902-1.83 1.832-1.646-1.713-4.074 0.098-4.576 0-0.383-0.077-1.647-1.106-2.288-1.374-1.019-0.425-1.737-1.075-3.203-0.915-0.812 4.825 4.438 9.794 0.915 11.898-3.182-1.243-2.84-6.009-6.865-6.406 0.031 1.556 0.144 3.192-0.916 3.661-1.738-1.008-3.254-2.238-5.948-2.289-0.67 1.274 0.649 2.72-0.915 3.66-5.838 0.112-8.596 3.304-10.983 6.865 1.661 1.238 4.479 1.318 4.576 4.119-0.872 0.652-1.986 1.063-3.204 1.372 0.436 2.77 2.769 3.64 4.119 5.492 2.064 0.071 4.43-0.16 4.576 1.83-1.392 0.438-3.12 0.539-3.66 1.83 3.214 1.492 9.997-0.731 11.898 0.915-1.202 2.613-5.278 2.351-5.492 5.95 3.009 0.725 4.98 1.003 7.779 0 1.082 1.136 0.006 2.693 0 4.119 2.713-0.104 7.66-2.101 9.611 0-0.833 1.561 0.062 2.198 0 4.118 4.598-1.199 7.33-4.262 10.524-6.865 0.807-6.924-2.062-12.044-5.491-16.017 0.229 3.965-2.326 9.276-5.948 9.153 0.79-3.786 5.115-4.037 4.118-9.609-4.694-0.832-9.823-2.899-14.645-3.205-2.293-0.146-4.749 1.279-6.407-0.457 0.645-1.798 4.341-0.542 6.407-0.915-0.294-1.785-2.793-0.737-4.118-0.917-1.725-0.231-3.442-0.797-5.034-0.914-1.964-0.145-4.068 0.774-5.034-0.457 0.891-2.009 4.389-1.854 5.949-1.831 7.624 0.109 15.954 5.15 22.423 6.863 0.146-2.973-1.819-8.21 0.916-9.608-1.206 4.378-0.145 8.891 2.289 10.982 4.291-2.275 9.836-4.862 10.983-10.067 0.332-1.508-0.589-3.78-0.459-5.492-4.31 3.14-4.86-7.05-10.09-7.3zm9.15 90.15c-0.792 2.628-4.405 4.144-7.322 3.205 0.801 1.614 0.36 3.766 0 5.491 4.88 3.4 11.82-4.18 7.32-8.69zm-3.2-10.07c-2.191 2.36-0.619 8.104-3.661 10.526 6.02 3.89 9.65-8.56 3.66-10.53zm-1.37-13.73c-0.102 0.354-0.013 0.902-0.458 0.916 0.479 1.198 1.452 1.903 2.288 2.745 0.088-1.591 1.619-1.738 1.831-3.204-1.1-0.28-2.09-0.66-3.66-0.46zm-5.04 1.84c-4.444 0.115-7.219 6.795-5.035 10.525 2.089 3.565 8.171 3.283 10.068 0.456 1.013-1.506 0.834-4.443 0.458-5.948-0.81-3.24-2.32-5.12-5.5-5.03zm3.21 14.64h-4.119c0.531 2.904 0.584 4.811 0 7.32 3.44-0.4 4.89-4.09 4.12-7.32zm-9.61-122.64c-3.554-3.285-8.394-6.029-14.645-5.492-11.655 1.002-18.93 10.305-17.391 23.339 3.274 2.066 5.329 5.351 5.035 10.983 4.28 5.482 8.277 11.246 19.221 10.067 1.484-0.04 0.322-2.728 2.288-2.288 1.639 0.039 2.643 0.711 4.117 0.916 2.244-1.887 3.291-2.272 5.492-5.034 0.957-1.2 2.603-3.055 3.204-4.119 3.903-6.908 1.138-18.981-4.12-24.254 0.607 5.335-1.435 8.022-3.659 10.525 0.633 0.738 0.387 2.359 1.372 2.746 1.04-0.332-0.42-3.167 1.372-2.746 1.221 1.849 0.329 5.501-2.287 5.034-1.319-1.884-2.271-4.136-2.289-7.322 0.981-0.544 2.558-0.494 3.204-1.373 1.26-3.621 0.1-8.139-0.89-10.985zm2.74 101.14c1.17 0.965 1.567 2.703 1.372 5.034 0.957 0.032 3.957 0.422 5.034 0-0.88-2.62-5.13-4.31-6.4-5.03zm2.29-67.27c-0.359 2.693-3.594 2.508-4.119 5.034 3.751 0.701 3.87-2.231 6.407-2.745-1.12-0.4-0.5-2.55-2.29-2.28zm-5.49 108c5.956 0.888 10.908-6.287 5.491-10.525-1.791 0.992-2.783 2.095-4.576 2.747-1.92 0.697-4.589-0.406-5.949 1.83-0.5 2.96 2.42 5.55 5.04 5.94zm-6.41-18.76c-0.763 2.605 0.345 4.518-0.458 7.322 3.963 5.195 14.231 0.664 10.983-6.864-2.81-2.5-7.14-3.04-10.52-0.46zm0.92-23.8c-0.154 1.947 3.133 4.105 3.204 7.321-0.522 1.005-1.181 1.871-0.916 3.661 2.919 1.322 4.514-1.624 6.407-2.746 0.43-5.86-3.34-9.64-8.69-8.23zm3.2-3.2c0.083-1.289 2.173-0.57 1.83-2.288-0.805-0.263-2.688 0.554-2.746-0.457-0.376-1.749 2.206-0.539 1.831-2.287-0.665-0.252-2.366 0.534-2.288-0.459 0.146-1.074 1.416-1.025 1.829-1.83-1.135 0.067-2.22 0.085-2.287-0.915 0.807-0.413 1.417-1.024 1.831-1.831-0.687-0.078-1.689 0.164-1.831-0.457-0.137-1.203 1.775-0.36 1.373-1.831-2.574-0.18-3.41 0.673-6.407 0.916 0.767 5.011 0.639 8.943 0.457 14.186 2.245-2.382 7.141-2.074 10.068-0.458 0.37-2.35-2.64-1.32-3.65-2.29zm-0.92 15.56c0.557 1.73 1.815 2.76 2.746 4.118 0.385-1.142 0.6-2.452 0.458-4.118h-3.21zm-7.77 2.28c1.023 2.637 3.758 3.564 3.661 7.321 2.285-0.308 3.439-1.746 5.49-2.289-0.17-5.79-4.16-7.3-9.15-5.03zm-2.29-149.64c1.976 0.009 1.688 2.28 3.661 2.289 0.271-1.819-3.201-2.259-1.831-3.661 1.629-0.377 2.005 2.836 3.205 1.373-0.528-0.148-1.576-1.996-0.459-2.288 0.907 0.62 1.78 1.271 1.374 3.204 1.958 0.128 2.263-1.397 4.576-0.916 0.057-1.887-0.796-2.865-0.458-5.034-2.074-2.948-6.45-4.474-8.238-7.779-1.054-1.952-0.396-4.15-1.83-6.407-2.493 2.333 0.817 10.442-1.83 11.441-5.604-0.041-5.549-5.74-8.695-8.237-0.301 1.644 1.476 3.544-0.457 4.118-2.485-0.718-3.521-2.886-5.492-4.118 1.603 5.415 3.772 10.261 3.66 17.39 5.305 1.103 5.798 7.017 9.611 9.61 0.604-3.351-2.267-3.225-2.746-5.492 2.455-0.32 2.006 2.265 4.119 2.288 0.282-2.723-2.884-1.998-2.288-5.034 2.155 0.285 2.105 2.776 4.118 3.204 0.301-2.588-2.057-2.52-2.287-4.576 1.99-0.887 2.532 1.995 3.202 0.915-0.3-0.516-2.12-1.775-0.91-2.29zm8.69 145.07c1.116-3.621-0.336-6.42-2.289-8.237-4.867-0.814-6.95-0.901-10.068 2.289-0.913 5.641 2.289 7.169 5.95 8.237 1.39-1.52 5.19-0.62 6.41-2.29zm-0.91 30.66c-3.062 2.03-5.295 4.446-10.525 3.205 0.19 8.7 14.91 3.05 10.52-3.21zm-1.38-1.37c0.889-4.525-0.138-7.137-2.746-9.153-2.868 1.555-4.837 4.011-9.152 4.118-2.97 8.1 8.68 10.48 11.9 5.03zm-1.83-97.94c-1.662-0.445-0.975 2.558 0 2.289 0.86-0.87 0.05-1.15 0-2.29zm-0.45 83.29c0.089 1.767-2.125 1.23-1.83 3.203 0.802-0.126 2.283 1.288 2.746 0-1.97-0.02 0.67-2.4-0.92-3.2zm-1.83-7.78c-6.747-1.084-10.126 3.925-7.78 9.151 1.692 0.291 2.725 1.242 5.035 0.916 3.33-1.48 6.24-7.03 2.75-10.07zm-0.92-35.23c-2.737 1.049-6.662-0.652-7.323-3.204-3.786 1.492-7.85 2.203-12.356 2.745-16.62 2.005-36.398 1.998-52.169-0.456-0.503 4.529-2.011 8.055-3.203 11.897 2.837 0.12 5.351 1.281 8.237 1.83 3.067 0.584 6.012 0.197 9.153 0.458 6.419 0.533 13.152 2.461 19.22 1.83 1.153-0.119 2.146-0.856 3.203-0.915 13.323-0.72 25.133-1.332 37.068-4.576-0.86-2.95-0.9-6.73-1.83-9.6zm0.46 12.35c-23.082 5.115-51.866 5.983-75.966 0.915-1.279 3.906-3.247 7.125-4.575 10.983 21.243 6.244 52.057 6.568 72.762 2.746-0.06-2.171 0.827-6.601 2.746-8.238 1.956-0.637 3.949-1.237 5.949-1.83-2.611-1.383 1.513-1.931 0.458-4.576-0.65-0.17-0.77-0.54-1.37 0.01zm-2.29-50.79c-0.13-2.807-0.55-0.93-2.289-0.915-1.086-2.576-4.001-3.322-6.407-4.578 0.928 5.022 5.491 6.408 10.067 7.781-0.34-1.865 1.476-1.576 0.915-3.662-1.29-0.07-1.06 1.38-2.28 1.38zm-6.41 84.2c-0.097 0.514-0.507 0.713-0.915 0.915-0.16 5.714 8.551 4.686 8.694 0-3.13 1.32-5-0.61-7.78-0.92zm1.37-17.39c-4.966 1.874-12.48 2.117-16.474 2.745-5.845 0.922-12.386 0.261-18.306 0-13.894-0.609-28.222-0.725-39.813-5.032-1.938 1.111-2.617 3.484-4.118 5.032 8.865 3.731 19.975 3.661 31.117 5.035 10.481 1.292 21.357 1.265 30.661 0.457 0.834-1.062-1.258-1.935 0.459-3.203 2.753-0.359-0.318 2.455 1.83 2.288 0.062-1.463-0.451-3.503 1.373-3.203 1.319 1.026-1.25 3.289 1.373 3.203 0.272-0.948-0.566-3.007 0.457-3.203 1.74-0.672 0.089 2.045 1.83 1.373-0.128-1.044 0.111-1.721 0.916-1.831 0.144 0.619 0.651 0.874 0.456 1.831 2.446 0.126-0.156-1.957 2.289-1.831 1.03 0.19-0.068 2.509 1.373 2.288 0.009-1.364-0.043-2.787 1.373-2.745 1.105 1.564-0.841 3.498 1.373 4.118 1.386-0.139 1.285-1.765 2.745-1.83 2.02-0.269 4.157-0.42 4.576-2.288-2.24-0.69-3.45-2.38-5.5-3.23zm-6.86-39.36c-0.189 1.015-2.51 0.438-2.289-0.458 0.135-0.934 1.238-0.897 1.374-1.83-0.686-0.079-1.689 0.163-1.831-0.458 0.923-2.149-2.396-3.113-1.83-5.034-11.87 2.688-25.852 2.975-38.898 3.204-4.144 0.072-8.187 1.562-11.898 0-1.435 3.445-0.77 8.992-2.288 12.355 13.854 2.873 35.79 2.239 51.711 0.458 5.188-0.58 13.018-1.884 15.103-4.119-3.64-0.76-9.1 0.27-9.14-4.11zm5.04-92.438c-1.514 1.231-4.092 1.399-5.493 2.746 0.651 3.165 3.207 4.421 5.035 6.406 5.38 0.145 4.11-8.3 0.46-9.152zm0.91-3.204c-0.964 0.958 0.603 1.72 1.373 2.289 0.22-1.438-0.57-1.87-1.37-2.289zm-1.83 20.593c0.417-0.803 1.604-0.837 2.288-1.373-0.188-1.509-0.769-5-1.83-4.118 0.87 0.754-0.75 5.315-0.46 5.491zm-1.37 44.849c-1.103-0.728-3.327-0.334-3.661-1.83 0.056-1.01 1.941-0.194 2.745-0.457-0.288-2.916-1.189-5.217-3.66-5.949-0.425 2.169-1.047 4.14-1.374 6.406 2.578 2.457 4.209 5.859 5.492 9.61 1.473 0.101 1.936-0.81 3.661-0.458 1.69-3.68-2.5-4.61-3.21-7.32zm2.29 92.44c-3.474-0.818-6.733 1.957-6.408 6.407 0.81 0.411 1.338 1.104 2.289 1.371 0.664-0.86 0.674-2.378 1.831-2.745 1.492 1.548-0.758 1.932-0.916 3.204 1.368 0.859 3.6 1.112 4.576-0.459-2.25-1.91-1.31-5.72-1.37-7.77zm-9.16-14.19c-0.977 6.541 3.616 9.16 8.237 6.406-0.868-1.916-0.604-5.071 0.916-5.948-2.57-1.85-6.06-2.62-9.16-0.46zm4.58-140.49c7.344-0.175 2.453-13.845-5.948-9.61 0.49 1.853 0.49 3.181 0 5.034 2.64 1.28 2.89 4.649 5.95 4.576zm2.74 15.101c0.422-3.93-0.328-6.688-3.203-7.322-1.936 1.572-3.416 3.601-7.321 3.203-2.06 6.211 7.74 8.874 10.52 4.119zm-1.83 55.367c-2.025-1.635-2.541-4.779-4.577-6.405-15.654 5.102-33.02 8.155-52.169 8.694-0.851 5.05 0.562 8.883 0 13.271 20.798 0.401 35.563-1.089 52.169-3.661-0.709-1.729-3.147-1.732-3.202-4.118 2.23-2.96 5.29-5.08 7.78-7.78zm-4.11-51.248v1.83c1.01-0.517 2.524-0.526 2.746-1.83h-2.75zm-1.84-10.068c1.51-0.412 3.01-2.548 3.202-3.661 0.71-4.069-7.109-12.569-11.44-7.779 0.22 5.074 0.82 13.467 8.24 11.44zm1.84 151.94c-0.31-2.598 0.823-3.754 0.916-5.95-3.93-0.61-5.14 5.93-0.92 5.95zm-6.41-120.82c-0.225 1.444 0.824 1.616 0.458 3.204 1.468 2.192 3.774 3.547 5.49 5.492 0.559-0.052 1.085-0.137 0.915-0.915-0.576-4.132-3.802-4.888-5.49-7.78-1.43-2.448-0.688-6.296-4.119-6.406-2.04 2.14 0.86 5.36 2.74 6.41zm3.66 19.68c-0.166-3.98 1.444-6.184 2.287-9.153-2.265-0.632-2.977-2.819-4.575-4.119-16.091 4.923-31.695 9.08-50.34 10.526 1.105 4.235 1.643 9.036 2.289 13.729 19.215-0.921 36.354-3.918 51.711-8.696-0.94-0.28-1.73-0.71-1.37-2.29zm1.37-39.813c-0.593-4.433-9.781-4.633-11.44-1.373-2.69 8.389 12.37 8.328 11.44 1.373zm-1.83 120.35c-1.869 0.113-3.256 0.709-4.118 1.829-0.252 2.847 1.592 3.598 4.118 3.662 1.01-1.34-0.53-3.19 0-5.49zm-6.86-113.49c0.451 2.6 1.711 4.391 5.035 4.119 0.482-1.516 2.626-3.76 1.373-5.492-1.88 1.614-4.25 0.726-6.4 1.373zm-0.92-38.44c1.433 1.312 1.468 4.024 2.289 5.949 1.12-1.385 2.978 0.348 4.575 0 0.6-4.572-3.25-7.118-6.87-5.949zm5.04 44.389c-1.055 0.363 0.236 2.151 0.915 2.288v-2.288h-0.91zm-1.83-22.423c-0.212 2.687-3.605 2.19-3.659 5.034 1.372-0.608 3.499-0.465 5.491-0.458-0.72-1.423-0.45-3.829-1.83-4.576zm-3.21 27.003c-0.596-2.595 1.184-4.199 0.459-6.864-2.544-0.284-4.244 1.768-6.407 2.746-12.069 5.451-27.19 8.92-42.103 11.897 0.751 3.674 2.875 5.972 3.204 10.069 10.89-0.746 20.289-3.038 28.372-5.034 5.439-1.343 9.308-1.964 13.729-3.204 2.328-0.652 5.462-1.051 6.865-3.203 0.01-2.81-3.49-3.74-4.11-6.42zm1.38-29.749c-3.077 2.703-8.421 5.316-12.356 1.373-1.747 7.401 10.204 4.97 12.813 1.831 0-1.216 0.18-2.614-0.45-3.204zm-11.45-21.051c-2.25 2.083-1.493 7.391 0.915 8.695 2.911-0.755 5.19 0.184 7.78 0.915 3.83-5.731-2.45-12.572-8.7-9.61zm6.41 22.882c1.002-1.394 3.258-2.422 3.661-4.119 1.278-5.357-3.354-10.171-9.609-7.779-1.22 2.989-1.17 4.428-1.831 7.779 1.52 2.445 3.27 4.663 7.78 4.119zm-2.29 9.61c-0.46 0.608-0.434 1.703-1.373 1.83 0.947-1.906-2.494-1.718-2.746-0.915 3.941 2.161 6.914 5.29 10.067 8.237-0.99-4.599-4.21-6.38-5.95-9.152zm-6.86-8.238c-1.549 0.129-2.628 0.729-4.577 0.458-0.201 1.573 0.181 2.565 0.458 3.661 2.909 2.81 11.393 4.777 14.645 0.915-3.53-0.452-10.41 0.181-10.52-5.034zm-2.75 10.526c-10.599 6.637-23.39 11.084-37.066 14.644 0.46 2.896 2.607 4.104 3.203 6.864 17.565-2.265 32.389-7.272 46.221-13.271-0.001-0.46 0.37-0.545 0.457-0.915 0.279-0.026 0.542-0.069 0.458-0.458-3.39-3.296-7.53-7.302-13.27-6.856zm3.21-12.814c0.692-2.326-1.803-5.777 0-8.237-2.41-2.502-7.821-1.886-10.982-0.458-4.59 7.395 4.56 13.076 10.98 8.695zm-12.36-16.474c-1.031 1.537-2.168 4.98-0.915 7.322 1.862-0.07 2.261-1.712 4.118-2.289 3.067-0.953 6.71 0.61 9.152-0.916-0.16-7.044-7.51-5.636-12.35-4.117zm-1.83-4.577c2.738 0.465 4.843 1.562 8.235 1.373 1.16-5.35-7.4-4.17-8.23-1.373zm-5.49 6.865c1.884-0.359 2.348 0.703 4.117 0.458 0.01-2.737 2.343-3.149 3.204-5.034-2.93-0.702-6.65 1.516-7.32 4.576zm5.49 12.356c-0.146 0.618-0.651 0.874-0.459 1.83h2.289c-0.06-1.164-0.67-1.774-1.83-1.83zm-10.98-5.034c-0.026 6.055 13.127 7.942 10.984-0.916-1.61-6.643-10.96-4.816-10.98 0.916zm-22.89 132.71c4.473-2.924 9.224-15.6 10.983-21.049 1.729-5.36 3.978-9.799 2.746-14.188 2.016-0.373 1.535-3.078 1.83-4.576 3.203-16.319-0.239-37-5.035-48.508-2.409-5.783-5.118-12.376-11.896-10.983 0.125 3.17 2.745 5.186 4.117 7.78 8.148 15.383 9.095 41.423 5.492 56.746-2.13 9.059-4.53 16.188-8.237 22.423-0.874 1.47-1.542 3.041-2.287 4.119-1.923 2.779-5.588 4.455-5.492 8.236 1.89 2.71 6.01 1.18 7.79 0zm-0.91-14.18c1.565-3.167 3.159-7.624 4.576-11.898 1.418-4.271 2.937-8.987 3.662-13.271 0.125-0.745-0.534-1.446-0.457-2.289 0.051-0.563 0.841-1.235 0.915-1.83 1.62-13.113-0.485-26.493-3.203-36.152-1.633-5.801-2.454-8.997-5.034-12.814-0.898-1.33-1.971-4.622-4.119-3.203-0.042 2.073 2.781 4.112 3.204 6.864 0.489 3.197-0.273 6.789-0.915 8.238-0.861 1.938-2.357 2.876-3.661 4.118-0.738 0.702-1.197 1.804-1.831 2.288-1.559 1.194-3.801 1.338-5.492 2.745-3.244 2.701-8.1 12.216-6.863 17.391 0.161 0.679 3.337 5.649 3.659 5.949 0.267 0.246 1.103-0.247 2.289 0.457 0.612 0.364 0.964 1.654 1.373 1.831 8.679 3.76 14.809-1.433 16.474-8.696-0.415-4.884-2.701-10.785-7.778-11.439-3.304-0.426-6.91 1.305-7.78 3.204-0.845 1.843-0.52 4.975 0 7.321 1.799 1.852 5.475 4.099 8.696 1.831 0.22-1.458 1.439-1.916 1.371-3.661-0.243-2.197-3.312-1.568-3.66-3.661 4.369-1.999 6.048 3.53 5.034 6.864-0.984 3.24-5.145 3.443-9.153 3.202-7.688-3.5-4.957-16.329 2.288-17.388 7.981-1.169 12.122 5.599 12.356 11.897 0.237 6.406-4.289 12.568-7.78 13.729-3.604 1.197-7.722-0.118-10.525-1.373-1.805-0.808-3.276-2.711-5.034-2.745 3.73 8.528 17.078 13.407 16.019 26.542-0.484 5.982-5.34 12.363-10.984 12.813-9.576 0.765-13.363-9.999-22.881-4.576 1.529 2.55 5.336 2.887 8.236 4.119 4.249 1.804 8.469 4.425 12.814 3.661 5.41 4.43 11.87-5.4 14.17-10.06zm-9.15-70.48c1.339-5.227-3.379-7.686-5.493-7.78-2.242-0.099-6.063 2.229-6.862 3.661-0.257 0.459-0.962 2.584-0.916 5.034 0.088 4.703 3.054 8.575 8.237 9.153 4.71 0.524 5.801-1.226 7.779-3.204 0.715-0.715 1.849-1.355 2.289-1.83 3.178-3.431 1.97-14.016-2.746-15.102-2.325-0.535-2.291 1.013-5.492 0.458 0.758 1.685 3.142 1.741 4.119 3.204 3.431 4.075-0.762 13.341-4.576 9.611 1.23-1.05 2.72-1.85 3.66-3.2zm-4.58 63.15c3.98-4.855-1.566-10.573-7.323-9.609-2.321 0.388-2.992 2.623-5.032 3.203-6.436 13.013 13.3 24.469 20.592 14.186 1.265-1.782 0.222-3.275 2.289-5.491-0.077-1.456-1.073-3.369 0-4.576-1.403-4.223-3.955-6.867-6.407-9.61-2.716-3.038-6.481-6.838-8.237-10.067-3.021-5.556-4.305-13.797-2.289-19.679 1.356-3.951 5.006-6.251 6.865-9.609-7.37-0.392-12.893-6.768-10.982-14.645 0.225-0.927 1.561-2.212 2.288-3.203 0.511-0.697 2.912-2.243 1.373-2.746-3.035 0.626-6.868 0.454-10.525 0.458 10.146 23.981 4.517 61.377-12.357 77.797 1.669 1.229 3.768 2.029 5.492 3.203 2.632-2.031 6.12-4.834 10.982-3.203-2.548-4.355-3.743-9.943-0.456-14.644 0.233-0.337 1.718-0.898 2.288-1.373 2.405-2.005 4.415-2.807 8.693-2.289 1.306 1.368 3.993 2.118 5.035 5.034 1.46 4.09 0.523 10.769-4.576 9.152-0.43-1.97 1.8-1.26 2.3-2.29zm-32.03 5.95c7-3.726 13.126-19.099 15.102-28.83 0.873-4.3 1.993-8.816 2.289-12.813 0.169-2.292-0.585-4.548-0.459-6.865 0.077-1.382 0.905-2.845 0.915-4.117 0.079-9.062-3.293-17.898-5.032-24.255-2.677-1.442-2.148-6.091-6.865-5.491-2.345 2.609 0.433 5.228 1.374 7.322 6.6 14.704 3.738 40.017-1.832 54.916-2.772 7.418-5.326 10.643-9.609 14.645-1.339 1.25-3.951 2.686-3.662 5.032 2.37 2.47 5.67 1.58 7.78 0.46zm1.37-16.93c0.729-1.595 2.241-3.561 2.745-5.033 0.3-0.871-0.224-2.24 0-3.204 0.241-1.023 1.608-1.933 1.832-2.745 0.785-2.857 1.341-6.261 1.83-9.152 2.477-14.64 1.541-30.628-5.033-41.186-6.864 0.151-11.811-1.614-16.932-3.204 4.228 23.088-3.439 45.083-14.187 57.662-2.251 1.257-4.49 2.526-5.949 4.576 8.218 5.51 16.681 10.776 25.627 15.559 4.36-3.08 7.61-7.88 10.07-13.28zm-37.98-3.66c4.316-1.387 10.487-8.205 12.814-12.355 1.02-1.816 2.028-5.056 3.203-7.779 3.764-8.721 5.721-19.282 5.491-30.203-0.109-5.243 0.336-16.128-6.864-15.102 1.098 2.668 3.103 4.565 3.661 7.78 0.779 4.478 0.405 10.56 0 15.558-0.955 11.804-6.294 26.054-12.355 33.407-3.67 4.452-10.209 8.391-16.018 5.033 0.96 4.19 6.03 4.96 10.08 3.66zm5.49-66.35c0.396 1.929 1.989 3.511 3.203 5.491 2.044 3.336 2.734 7.111 7.779 6.407 1.19-7.07-5.33-10.18-10.98-11.9zm9.15 14.18c0.178 1.807 1.479 2.488 2.288 3.661 0-1.373 0.001-2.746 0-4.119-1.29-0.37-1.19 0.65-2.29 0.46zm-2.74-0.91c-3.49-4.915-6.765-9.993-9.611-15.101-2.654-1.313-4.687-3.245-7.78-4.119 3.391 6.611 5.002 15.026 8.238 21.508 2.274 4.558 5.655 10.562 11.441 10.984 0.119-0.645 1.003-0.523 1.373-0.917 1.42-5.77-1.46-9.24-3.66-12.35zm3.66 16.93c-0.331-1.397 0.467-1.667 0.457-2.746-1.79-0.5-1.84 2.73-0.46 2.75zm-2.75-0.46c-0.59-0.876-2.592-1.82-3.662-2.746-2.777-2.407-4.735-4.708-6.406-7.78-4.94-9.084-7.395-25.252-15.103-30.661 0.219 4.052 2.932 8.309 4.12 13.271 0.929 3.883 0.908 8.112 1.83 11.898 0.159 0.653 1.139 1.469 1.373 2.289 0.815 2.857 0.35 5.008 2.288 5.949-0.76 2.737 2.073 5.034 2.288 8.236 3.427 3.556 6.348 9.66 11.898 9.611 3.01-2.35 3.55-6.83 1.37-10.07zm-2.29 11.9c-0.094 1.315 0.116 2.324 0.915 2.746 0.124-0.835 1.648-2.566 0.458-3.203-0.08 0.52-0.73 0.49-1.38 0.45zm-26.54-26.09c2.419 14.106 6.987 27.647 15.559 33.865 5.436 3.943 12.44 0.992 9.61-6.406-0.863-2.258-5.523-4.079-7.78-6.864-1.064-1.314-2.56-4.236-3.661-6.407-1.115-2.198-2.436-4.708-3.203-6.864-1.7-4.778-1.965-10.332-3.204-15.56-0.363-1.537-1.394-2.897-1.83-4.576-0.469-1.811-0.419-3.818-0.915-5.491-2.007-6.758-4.301-10.403-7.781-13.729-0.95-0.908-2.474-3.981-3.203-2.288 4.37 9.537 4.51 23.338 6.4 34.328zm19.68 37.53c0.287 1.392-0.585 3.941 0.458 4.576 0.688-1.296 1.85-2.115 1.83-4.117-1.3 0.38-1.19-0.65-2.29-0.46zm-25.17-14.19c1.151 4.049 2.244 8.243 3.661 10.982 1.683 3.253 9.395 12.276 13.271 12.356 0.717 0.013 4.448-1.337 5.492-2.747 4.548-6.146-4.108-8.967-6.865-12.355-6.816-8.381-10.213-20.646-12.355-32.949-0.759-4.353-1.289-6.954-1.832-10.525-0.396-2.611-0.021-5.27-0.457-7.78-0.937-5.392-2.278-10.779-3.203-15.102-0.334-1.558-4.562-7.979-5.034-5.949 4.08 20.597 2.09 45.651 7.33 64.071zm2.29 12.82c-3.031-8.344-6.406-17.612-7.321-27.914-0.237-2.659 0.257-5.195 0-7.779-0.37-3.719-2.085-7.451-0.458-10.526-2.302-7.396-1.014-16.936-2.289-25.169-0.973-6.29-3.633-12.982-7.779-15.56 3.236 13.049 1.315 30.206 0.458 45.763-1.108 20.114 5.58 35.097 18.306 42.102 0.024 0.482 0.586 0.36 0.457-0.457-0.59-0.02-0.64-0.58-1.38-0.45zm-19.22-42.1c0.669-13.053 1.675-34.344 0-44.39-0.516-3.087-1.453-6.507-3.661-8.237-0.437 3.53-1.747 6.186-3.203 8.695 3.588 15.496-4.97 38.837-1.373 54.915 1.633 7.305 6.211 11.412 10.524 16.017 0.615 0.093 0.853 1.9 0.916 0-1.41-8.53-3.74-16.76-3.21-27zm-14.648-37.072c0.377-3.463 5.066-6.024 6.864-9.61 0.797-1.588 1.001-4.905 1.373-5.949 1.009-2.825 2.02-6.782-2.288-8.237-0.372 6.419-2.019 9.979-4.577 14.187-3.627 5.968-10.777 13.898-16.474 16.017-2.353 0.875-6.648-0.66-6.864 3.661 9.945 4.422 15.931-6.104 21.967-10.069zm-0.457 4.118c-0.303 1.039 0.175 3.071 0 5.034-0.504 5.624-2.293 12.621-2.746 18.306-0.972 12.18 3.899 18.757 8.696 23.339-5.373-16.41 3.401-37.396 0.915-55.831-1.39 2.669-5.924 5.911-6.865 9.147zm-4.576-17.847c-6.699-2.607-10.658-7.952-10.068-17.847-5.756 4.151-13.319 28.144 1.83 27 2.99-2.735 2.741-10.264-1.373-10.068-3.672 0.174-1.021 4.792-4.119 5.491-1.21-4.271 1.143-7.006 3.662-7.322 8.194-1.026 7.255 15.048-0.916 14.644-3.863-0.191-7.067-5.663-7.779-9.61-1.325-7.327 2.924-13.66 5.033-18.305-8.62 2.298-13.088-3.335-17.847-6.406 0.988 2.943 3.486 4.942 5.034 7.779 2.571 4.712 4.168 10.775 5.95 16.017 1.955 5.754 4.145 11.703 5.949 17.39 4.613-0.615 6.681-2.226 9.61-4.577 3.751-3.009 5.077-4.464 7.323-7.78 2.456-3.627 5.893-8.084 5.491-12.814-0.727 4.004-4.052 5.408-7.78 6.408zm-7.78-9.153c0.893 2.115 3.895 5.695 5.491 6.407 4.708 2.099 8.309-1.429 8.695-5.492 0.45-4.726-2.33-9.86-4.118-11.44-6.583-5.82-9.952 4.898-5.95 10.067 1.252 1.096 2.937-0.897 4.119 0.458-8.867 8.665-10.518-19.816 1.373-13.271-2.188-4.677-5.67-8.059-9.153-11.441 0.673 6.482-3.461 17.596-0.457 24.712zm1.83 33.864c-2.393 11.869 1.38 18.045 5.95 24.254-0.854-9.666 3.303-20.406 2.288-30.203-2.757 1.976-4.606 4.857-8.238 5.953zm-1.83 1.373c-1.44-0.219-1.789 0.652-2.747 0.915 0.436 2.311 1.251 4.241 2.289 5.95-0.3-2.589 1.492-5.009 0.458-6.865zm-0.915-55.372c-0.22-7.882-4.115-9.73-9.61-13.729-3.989-2.901-8.192-6.003-12.356-7.779-2.787-1.189-5.975-1.873-8.238-2.746-3.422 5.119-5.969 11.115-5.948 19.678 5.437 2.647 8.248 7.922 14.186 10.068-2.47-7.72 1.896-12.281 5.491-16.475-2.545-2.141-6.843-6.649-11.898-5.491-5.301 1.213-6.456 12.355 2.288 10.067 1.638-1.918-0.249-3.546 0.457-5.034 4.166 2.481 0.415 7.275-2.745 7.322-8.047 0.12-6.903-14.203 2.288-14.187 6.224 0.011 7.875 5.42 12.813 7.322 1.649 0.635 3.424 0.077 5.95 0.916 1.865 2.358 4.657 5.552 4.576 9.61-0.158 7.918-10.625 9.254-10.525 1.83 2.597 0.998 1.971 3.41 5.035 3.204 1.153-0.078 3.865-2.167 4.118-4.576 0 0.004-1.482-5.675-1.372-5.492-1.358-2.255-6.714-4.544-10.069-3.204-2.476 0.991-5.66 6.583-5.491 10.068 0.235 4.869 4.91 9.676 9.153 10.526 2.036 0.408 4.259-0.305 6.407 0 3.483-2.487 5.612-7.498 5.49-11.898zm-32.949-27.458c-1.793 2.198-4.57 7.256-5.949 11.898-1.196 4.024-3.313 10.295 1.373 11.441-0.37-8.226 3.135-15.92 6.406-21.966v-0.915c-0.866 0.102-1.009-0.516-1.83-0.458zm-17.847 0c-3.718 0.249-7.951-0.137-12.355 0.916-9.925 2.371-18.257 6.314-16.018 17.847 2.193 1.936 5.463 2.765 9.61 2.288 5.42-0.623 10.752-2.664 16.475-2.288 3.895 0.256 7.126 1.708 10.983 1.831 0.593-7.796 3.057-13.722 5.949-19.22-4.586-0.529-10.401-1.657-14.644-1.374z" fill-rule="evenodd"/>
<metadata><rdf:RDF><cc:Work><dc:format>image/svg+xml</dc:format><dc:type rdf:resource="http://purl.org/dc/dcmitype/StillImage"/><cc:license rdf:resource="http://creativecommons.org/licenses/publicdomain/"/><dc:publisher><cc:Agent rdf:about="http://openclipart.org/"><dc:title>Openclipart</dc:title></cc:Agent></dc:publisher><dc:title>cornucopia</dc:title><dc:date>2007-10-17T23:45:54</dc:date><dc:description>The Principles of Design by G. Woolliscroft Rhead 1905</dc:description><dc:source>http://openclipart.org/detail/7160/cornucopia-by-johnny_automatic-7160</dc:source><dc:creator><cc:Agent><dc:title>johnny_automatic</dc:title></cc:Agent></dc:creator><dc:subject><rdf:Bag><rdf:li>abundance</rdf:li><rdf:li>clip art</rdf:li><rdf:li>clipart</rdf:li><rdf:li>cornucopia</rdf:li><rdf:li>externalsource</rdf:li><rdf:li>food</rdf:li><rdf:li>greek</rdf:li><rdf:li>image</rdf:li><rdf:li>media</rdf:li><rdf:li>png</rdf:li><rdf:li>public domain</rdf:li><rdf:li>svg</rdf:li><rdf:li>symbol</rdf:li></rdf:Bag></dc:subject></cc:Work><cc:License rdf:about="http://creativecommons.org/licenses/publicdomain/"><cc:permits rdf:resource="http://creativecommons.org/ns#Reproduction"/><cc:permits rdf:resource="http://creativecommons.org/ns#Distribution"/><cc:permits rdf:resource="http://creativecommons.org/ns#DerivativeWorks"/></cc:License></rdf:RDF></metadata></svg>
